<svg width="905.0375px" height="124.39999999999999px" xmlns="http://www.w3.org/2000/svg" viewBox="-202.51875 12.800000000000004 905.0375 124.39999999999999" style="background: rgba(0, 0, 0, 0);" preserveAspectRatio="xMidYMid"><defs><linearGradient id="editing-gradow-gradient" x1="0" x2="1" y1="0.5" y2="0.5" gradientUnits="objectBoundingBox"><stop offset="0" stop-color="#f0f"></stop><stop offset="1" stop-color="#0ff"></stop></linearGradient><filter id="editing-gradow-filter" x="-100%" y="-100%" width="300%" height="300%"><feFlood flood-color="none" result="flood"></feFlood><feComposite operator="in" in2="SourceAlpha" in="flood" result="shadow"></feComposite><feOffset dx="0.9" dy="-0.3" in="SourceGraphic" result="offset-1"></feOffset><feOffset dx="-0.9" dy="0.3" in="shadow" result="offset-2"></feOffset><feMerge><feMergeNode in="offset-2"></feMergeNode><feMergeNode in="offset-1"></feMergeNode></feMerge></filter></defs><g filter="url(#editing-gradow-filter)"><g transform="translate(-75.70500183105469, 104.7650032043457)"><path d="M37.81-44.81L44.22-44.81L44.22 0L37.81 0L37.81-19.19L12.16-19.19L12.16 0L5.75 0L5.75-44.81L12.16-44.81L12.16-25.59L37.81-25.59L37.81-44.81ZM63.47 13.44L57.34 13.44L64.31-3L51.25-33.28L57.72-33.28L67.44-10.38L77.16-33.28L83.63-33.28L63.47 13.44ZM119.47-27.13L119.47-6.16L119.47-6.16Q119.47-4.88 118.98-3.75L118.98-3.75L118.98-3.75Q118.50-2.63 117.67-1.80L117.67-1.80L117.67-1.80Q116.84-0.97 115.72-0.48L115.72-0.48L115.72-0.48Q114.59 0 113.31 0L113.31 0L96.16 0L96.16 13.44L90.03 13.44L90.03-33.28L96.16-33.28L96.16-27.66L96.16-27.66Q96.25-28.84 96.78-29.86L96.78-29.86L96.78-29.86Q97.31-30.88 98.13-31.64L98.13-31.64L98.13-31.64Q98.94-32.41 100.02-32.84L100.02-32.84L100.02-32.84Q101.09-33.28 102.31-33.28L102.31-33.28L113.31-33.28L113.31-33.28Q114.59-33.28 115.72-32.80L115.72-32.80L115.72-32.80Q116.84-32.31 117.67-31.48L117.67-31.48L117.67-31.48Q118.50-30.66 118.98-29.53L118.98-29.53L118.98-29.53Q119.47-28.41 119.47-27.13L119.47-27.13ZM96.16-6.16L113.31-6.16L113.31-27.13L96.16-27.13L96.16-6.16ZM157.88-27.13L157.88-13.50L135.84-13.50L135.84-6.16L157.88-6.16L157.88 0L135.84 0L135.84 0Q134.59 0 133.47-0.48L133.47-0.48L133.47-0.48Q132.34-0.97 131.52-1.80L131.52-1.80L131.52-1.80Q130.69-2.63 130.20-3.75L130.20-3.75L130.20-3.75Q129.72-4.88 129.72-6.16L129.72-6.16L129.72-27.13L129.72-27.13Q129.72-28.41 130.20-29.53L130.20-29.53L130.20-29.53Q130.69-30.66 131.52-31.48L131.52-31.48L131.52-31.48Q132.34-32.31 133.47-32.80L133.47-32.80L133.47-32.80Q134.59-33.28 135.84-33.28L135.84-33.28L151.72-33.28L151.72-33.28Q153-33.28 154.13-32.80L154.13-32.80L154.13-32.80Q155.25-32.31 156.08-31.48L156.08-31.48L156.08-31.48Q156.91-30.66 157.39-29.53L157.39-29.53L157.39-29.53Q157.88-28.41 157.88-27.13L157.88-27.13ZM151.72-27.13L135.84-27.13L135.84-19.66L151.72-19.66L151.72-27.13ZM186.94-27.13L174.25-27.13L174.25 0L168.13 0L168.13-33.28L174.25-33.28L174.25-27.41L174.25-27.41Q174.31-28.63 174.81-29.70L174.81-29.70L174.81-29.70Q175.31-30.78 176.14-31.58L176.14-31.58L176.14-31.58Q176.97-32.38 178.06-32.83L178.06-32.83L178.06-32.83Q179.16-33.28 180.41-33.28L180.41-33.28L186.94-33.28L186.94-33.28Q188.22-33.28 189.33-32.80L189.33-32.80L189.33-32.80Q190.44-32.31 191.28-31.48L191.28-31.48L191.28-31.48Q192.13-30.66 192.61-29.53L192.61-29.53L192.61-29.53Q193.09-28.41 193.09-27.13L193.09-27.13L193.09-21.50L186.94-21.50L186.94-27.13ZM207.78-6.41L224.16-6.41L224.16-6.41Q228.63-6.41 231.03-8.81L231.03-8.81L231.03-8.81Q233.44-11.22 233.44-15.69L233.44-15.69L233.44-29.13L233.44-29.13Q233.44-31.31 232.81-33.03L232.81-33.03L232.81-33.03Q232.19-34.75 230.98-35.95L230.98-35.95L230.98-35.95Q229.78-37.16 228.06-37.78L228.06-37.78L228.06-37.78Q226.34-38.41 224.16-38.41L224.16-38.41L207.78-38.41L207.78-6.41ZM224.16 0L201.38 0L201.38-44.81L224.16-44.81L224.16-44.81Q227.75-44.81 230.64-43.70L230.64-43.70L230.64-43.70Q233.53-42.59 235.58-40.55L235.58-40.55L235.58-40.55Q237.63-38.50 238.73-35.59L238.73-35.59L238.73-35.59Q239.84-32.69 239.84-29.13L239.84-29.13L239.84-15.69L239.84-15.69Q239.84-12.13 238.73-9.22L238.73-9.22L238.73-9.22Q237.63-6.31 235.58-4.27L235.58-4.27L235.58-4.27Q233.53-2.22 230.64-1.11L230.64-1.11L230.64-1.11Q227.75 0 224.16 0L224.16 0ZM278.91-27.13L278.91-6.16L278.91-6.16Q278.91-4.88 278.42-3.75L278.42-3.75L278.42-3.75Q277.94-2.63 277.11-1.80L277.11-1.80L277.11-1.80Q276.28-0.97 275.16-0.48L275.16-0.48L275.16-0.48Q274.03 0 272.75 0L272.75 0L255.59 0L255.59 0Q254.34 0 253.22-0.48L253.22-0.48L253.22-0.48Q252.09-0.97 251.27-1.80L251.27-1.80L251.27-1.80Q250.44-2.63 249.95-3.75L249.95-3.75L249.95-3.75Q249.47-4.88 249.47-6.16L249.47-6.16L249.47-46.09L255.59-46.09L255.59-27.41L255.59-27.41Q255.66-28.63 256.16-29.70L256.16-29.70L256.16-29.70Q256.66-30.78 257.48-31.58L257.48-31.58L257.48-31.58Q258.31-32.38 259.41-32.83L259.41-32.83L259.41-32.83Q260.50-33.28 261.75-33.28L261.75-33.28L272.75-33.28L272.75-33.28Q274.03-33.28 275.16-32.80L275.16-32.80L275.16-32.80Q276.28-32.31 277.11-31.48L277.11-31.48L277.11-31.48Q277.94-30.66 278.42-29.53L278.42-29.53L278.42-29.53Q278.91-28.41 278.91-27.13L278.91-27.13ZM272.75-27.13L255.59-27.13L255.59-6.16L272.75-6.16L272.75-27.13ZM289.16-7.44L289.16-27.13L289.16-27.13Q289.16-28.41 289.64-29.53L289.64-29.53L289.64-29.53Q290.13-30.66 290.95-31.48L290.95-31.48L290.95-31.48Q291.78-32.31 292.91-32.80L292.91-32.80L292.91-32.80Q294.03-33.28 295.28-33.28L295.28-33.28L306.31-33.28L306.31-33.28Q307.53-33.28 308.63-32.83L308.63-32.83L308.63-32.83Q309.72-32.38 310.55-31.58L310.55-31.58L310.55-31.58Q311.38-30.78 311.89-29.70L311.89-29.70L311.89-29.70Q312.41-28.63 312.44-27.41L312.44-27.41L312.44-33.28L318.59-33.28L318.59 7.28L318.59 7.28Q318.59 8.56 318.11 9.69L318.11 9.69L318.11 9.69Q317.63 10.81 316.80 11.64L316.80 11.64L316.80 11.64Q315.97 12.47 314.84 12.95L314.84 12.95L314.84 12.95Q313.72 13.44 312.44 13.44L312.44 13.44L293 13.44L293 7.28L312.44 7.28L312.44-1.28L295.28-1.28L295.28-1.28Q294.03-1.28 292.91-1.77L292.91-1.77L292.91-1.77Q291.78-2.25 290.95-3.08L290.95-3.08L290.95-3.08Q290.13-3.91 289.64-5.03L289.64-5.03L289.64-5.03Q289.16-6.16 289.16-7.44L289.16-7.44ZM295.28-7.44L312.44-7.44L312.44-27.13L295.28-27.13L295.28-7.44ZM384.06-33.91L384.06-28.81L384.06-28.81Q384.06-19.44 376.06-18.13L376.06-18.13L384.50 0L377.41 0L369.09-17.91L355.06-17.91L355.06 0L348.66 0L348.66-44.81L373.19-44.81L373.19-44.81Q384.06-44.81 384.06-33.91L384.06-33.91ZM355.06-38.41L355.06-24.31L372.84-24.31L372.84-24.31Q375.41-24.31 376.53-25.44L376.53-25.44L376.53-25.44Q377.66-26.56 377.66-29.13L377.66-29.13L377.66-33.59L377.66-33.59Q377.66-36.16 376.53-37.28L376.53-37.28L376.53-37.28Q375.41-38.41 372.84-38.41L372.84-38.41L355.06-38.41ZM422.28-27.13L422.28-13.50L400.25-13.50L400.25-6.16L422.28-6.16L422.28 0L400.25 0L400.25 0Q399 0 397.88-0.48L397.88-0.48L397.88-0.48Q396.75-0.97 395.92-1.80L395.92-1.80L395.92-1.80Q395.09-2.63 394.61-3.75L394.61-3.75L394.61-3.75Q394.13-4.88 394.13-6.16L394.13-6.16L394.13-27.13L394.13-27.13Q394.13-28.41 394.61-29.53L394.61-29.53L394.61-29.53Q395.09-30.66 395.92-31.48L395.92-31.48L395.92-31.48Q396.75-32.31 397.88-32.80L397.88-32.80L397.88-32.80Q399-33.28 400.25-33.28L400.25-33.28L416.13-33.28L416.13-33.28Q417.41-33.28 418.53-32.80L418.53-32.80L418.53-32.80Q419.66-32.31 420.48-31.48L420.48-31.48L420.48-31.48Q421.31-30.66 421.80-29.53L421.80-29.53L421.80-29.53Q422.28-28.41 422.28-27.13L422.28-27.13ZM416.13-27.13L400.25-27.13L400.25-19.66L416.13-19.66L416.13-27.13ZM431.88-6.16L452.63-6.16L452.63-13.88L438.03-13.88L438.03-13.88Q436.75-13.88 435.63-14.36L435.63-14.36L435.63-14.36Q434.50-14.84 433.67-15.67L433.67-15.67L433.67-15.67Q432.84-16.50 432.36-17.63L432.36-17.63L432.36-17.63Q431.88-18.75 431.88-20.03L431.88-20.03L431.88-27.13L431.88-27.13Q431.88-28.41 432.36-29.53L432.36-29.53L432.36-29.53Q432.84-30.66 433.67-31.48L433.67-31.48L433.67-31.48Q434.50-32.31 435.63-32.80L435.63-32.80L435.63-32.80Q436.75-33.28 438.03-33.28L438.03-33.28L457.50-33.28L457.50-27.13L438.03-27.13L438.03-20.03L452.63-20.03L452.63-20.03Q453.91-20.03 455.02-19.55L455.02-19.55L455.02-19.55Q456.13-19.06 456.97-18.23L456.97-18.23L456.97-18.23Q457.81-17.41 458.30-16.28L458.30-16.28L458.30-16.28Q458.78-15.16 458.78-13.88L458.78-13.88L458.78-6.16L458.78-6.16Q458.78-4.88 458.30-3.75L458.30-3.75L458.30-3.75Q457.81-2.63 456.97-1.80L456.97-1.80L456.97-1.80Q456.13-0.97 455.02-0.48L455.02-0.48L455.02-0.48Q453.91 0 452.63 0L452.63 0L431.88 0L431.88-6.16ZM496.53-27.13L496.53-13.50L474.50-13.50L474.50-6.16L496.53-6.16L496.53 0L474.50 0L474.50 0Q473.25 0 472.13-0.48L472.13-0.48L472.13-0.48Q471-0.97 470.17-1.80L470.17-1.80L470.17-1.80Q469.34-2.63 468.86-3.75L468.86-3.75L468.86-3.75Q468.38-4.88 468.38-6.16L468.38-6.16L468.38-27.13L468.38-27.13Q468.38-28.41 468.86-29.53L468.86-29.53L468.86-29.53Q469.34-30.66 470.17-31.48L470.17-31.48L470.17-31.48Q471-32.31 472.13-32.80L472.13-32.80L472.13-32.80Q473.25-33.28 474.50-33.28L474.50-33.28L490.38-33.28L490.38-33.28Q491.66-33.28 492.78-32.80L492.78-32.80L492.78-32.80Q493.91-32.31 494.73-31.48L494.73-31.48L494.73-31.48Q495.56-30.66 496.05-29.53L496.05-29.53L496.05-29.53Q496.53-28.41 496.53-27.13L496.53-27.13ZM490.38-27.13L474.50-27.13L474.50-19.66L490.38-19.66L490.38-27.13ZM506.78-6.16L506.78-14.53L506.78-14.53Q506.78-15.81 507.27-16.92L507.27-16.92L507.27-16.92Q507.75-18.03 508.58-18.88L508.58-18.88L508.58-18.88Q509.41-19.72 510.53-20.20L510.53-20.20L510.53-20.20Q511.66-20.69 512.91-20.69L512.91-20.69L528.78-20.69L528.78-27.13L508.69-27.13L508.69-33.28L528.78-33.28L528.78-33.28Q530.06-33.28 531.19-32.80L531.19-32.80L531.19-32.80Q532.31-32.31 533.14-31.48L533.14-31.48L533.14-31.48Q533.97-30.66 534.45-29.53L534.45-29.53L534.45-29.53Q534.94-28.41 534.94-27.13L534.94-27.13L534.94 0L528.78 0L528.78-5.63L528.78-5.63Q528.69-4.47 528.16-3.44L528.16-3.44L528.16-3.44Q527.63-2.41 526.80-1.64L526.80-1.64L526.80-1.64Q525.97-0.88 524.91-0.44L524.91-0.44L524.91-0.44Q523.84 0 522.66 0L522.66 0L512.91 0L512.91 0Q511.66 0 510.53-0.48L510.53-0.48L510.53-0.48Q509.41-0.97 508.58-1.80L508.58-1.80L508.58-1.80Q507.75-2.63 507.27-3.75L507.27-3.75L507.27-3.75Q506.78-4.88 506.78-6.16L506.78-6.16ZM512.91-14.53L512.91-6.16L528.78-6.16L528.78-14.53L512.91-14.53ZM564-27.13L551.31-27.13L551.31 0L545.19 0L545.19-33.28L551.31-33.28L551.31-27.41L551.31-27.41Q551.38-28.63 551.88-29.70L551.88-29.70L551.88-29.70Q552.38-30.78 553.20-31.58L553.20-31.58L553.20-31.58Q554.03-32.38 555.13-32.83L555.13-32.83L555.13-32.83Q556.22-33.28 557.47-33.28L557.47-33.28L564-33.28L564-33.28Q565.28-33.28 566.39-32.80L566.39-32.80L566.39-32.80Q567.50-32.31 568.34-31.48L568.34-31.48L568.34-31.48Q569.19-30.66 569.67-29.53L569.67-29.53L569.67-29.53Q570.16-28.41 570.16-27.13L570.16-27.13L570.16-21.50L564-21.50L564-27.13ZM599.81-27.13L583.94-27.13L583.94-6.16L599.81-6.16L599.81-11.78L605.97-11.78L605.97-6.16L605.97-6.16Q605.97-4.88 605.48-3.75L605.48-3.75L605.48-3.75Q605-2.63 604.17-1.80L604.17-1.80L604.17-1.80Q603.34-0.97 602.22-0.48L602.22-0.48L602.22-0.48Q601.09 0 599.81 0L599.81 0L583.94 0L583.94 0Q582.69 0 581.56-0.48L581.56-0.48L581.56-0.48Q580.44-0.97 579.61-1.80L579.61-1.80L579.61-1.80Q578.78-2.63 578.30-3.75L578.30-3.75L578.30-3.75Q577.81-4.88 577.81-6.16L577.81-6.16L577.81-27.13L577.81-27.13Q577.81-28.41 578.30-29.53L578.30-29.53L578.30-29.53Q578.78-30.66 579.61-31.48L579.61-31.48L579.61-31.48Q580.44-32.31 581.56-32.80L581.56-32.80L581.56-32.80Q582.69-33.28 583.94-33.28L583.94-33.28L599.81-33.28L599.81-33.28Q601.09-33.28 602.22-32.80L602.22-32.80L602.22-32.80Q603.34-32.31 604.17-31.48L604.17-31.48L604.17-31.48Q605-30.66 605.48-29.53L605.48-29.53L605.48-29.53Q605.97-28.41 605.97-27.13L605.97-27.13L605.97-21.50L599.81-21.50L599.81-27.13ZM645.66-27.13L645.66 0L639.50 0L639.50-27.13L622.34-27.13L622.34 0L616.22 0L616.22-46.09L622.34-46.09L622.34-27.41L622.34-27.41Q622.41-28.63 622.91-29.70L622.91-29.70L622.91-29.70Q623.41-30.78 624.23-31.58L624.23-31.58L624.23-31.58Q625.06-32.38 626.16-32.83L626.16-32.83L626.16-32.83Q627.25-33.28 628.50-33.28L628.50-33.28L639.50-33.28L639.50-33.28Q640.78-33.28 641.91-32.80L641.91-32.80L641.91-32.80Q643.03-32.31 643.86-31.48L643.86-31.48L643.86-31.48Q644.69-30.66 645.17-29.53L645.17-29.53L645.17-29.53Q645.66-28.41 645.66-27.13L645.66-27.13Z" fill="url(#editing-gradow-gradient)"></path></g></g><style>text {
  font-size: 64px;
  font-family: Arial Black;
  dominant-baseline: central;
  text-anchor: middle;
}</style></svg>