<svg width="434.6375366210937px" height="83.6px" xmlns="http://www.w3.org/2000/svg" viewBox="32.68123168945314 33.2 434.6375366210937 83.6" style="background: rgba(0, 0, 0, 0);" preserveAspectRatio="xMidYMid"><defs><linearGradient id="editing-gradient-gradient" x1="0" x2="1" y1="0.5" y2="0.5" gradientUnits="objectBoundingBox"><stop offset="0" stop-color="#f0f"></stop><stop offset="1" stop-color="#0ff"></stop></linearGradient></defs><g><g transform="translate(97.09997987747192, 90.60000228881836)"><path d="M18.96-14.39L18.96-23.87L22.08-23.87L22.08 0L18.96 0L18.96-11.84L6.14-11.84L6.14 0L3.02 0L3.02-23.87L6.14-23.87L6.14-14.39L18.96-14.39ZM39.01-17.27L41.87-17.27L41.87 0.38L41.87 0.38Q41.87 2.03 41.33 3.22L41.33 3.22L41.33 3.22Q40.79 4.42 39.84 5.20L39.84 5.20L39.84 5.20Q38.88 5.98 37.57 6.35L37.57 6.35L37.57 6.35Q36.26 6.72 34.71 6.72L34.71 6.72L34.71 6.72Q33.32 6.72 31.91 6.48L31.91 6.48L31.91 6.48Q30.50 6.24 29.22 5.81L29.22 5.81L29.22 5.81Q29.43 5.23 29.67 4.68L29.67 4.68L29.67 4.68Q29.90 4.13 30.13 3.59L30.13 3.59L30.13 3.59Q30.53 3.72 31.09 3.87L31.09 3.87L31.09 3.87Q31.64 4.02 32.27 4.14L32.27 4.14L32.27 4.14Q32.89 4.27 33.54 4.34L33.54 4.34L33.54 4.34Q34.20 4.42 34.81 4.42L34.81 4.42L34.81 4.42Q35.78 4.42 36.56 4.16L36.56 4.16L36.56 4.16Q37.34 3.90 37.88 3.39L37.88 3.39L37.88 3.39Q38.43 2.87 38.72 2.12L38.72 2.12L38.72 2.12Q39.01 1.36 39.01 0.38L39.01 0.38L39.01-3.37L38.70-3.37L38.70-3.37Q38.27-2.59 37.70-1.90L37.70-1.90L37.70-1.90Q37.14-1.21 36.46-0.70L36.46-0.70L36.46-0.70Q35.78-0.18 34.99 0.11L34.99 0.11L34.99 0.11Q34.20 0.40 33.32 0.40L33.32 0.40L33.32 0.40Q32.11 0.40 31.21 0.12L31.21 0.12L31.21 0.12Q30.31-0.15 29.68-0.69L29.68-0.69L29.68-0.69Q29.04-1.23 28.63-2.03L28.63-2.03L28.63-2.03Q28.22-2.84 28.01-3.90L28.01-3.90L28.01-3.90Q27.82-4.85 27.77-5.93L27.77-5.93L27.77-5.93Q27.72-7.01 27.72-8.15L27.72-8.15L27.72-17.27L30.58-17.27L30.58-7.35L30.58-7.35Q30.58-6.28 30.68-5.34L30.68-5.34L30.68-5.34Q30.78-4.40 31.12-3.71L31.12-3.71L31.12-3.71Q31.46-3.02 32.12-2.63L32.12-2.63L32.12-2.63Q32.79-2.24 33.93-2.24L33.93-2.24L33.93-2.24Q34.78-2.24 35.53-2.65L35.53-2.65L35.53-2.65Q36.27-3.05 36.91-3.69L36.91-3.69L36.91-3.69Q37.54-4.32 38.06-5.08L38.06-5.08L38.06-5.08Q38.58-5.84 39.01-6.57L39.01-6.57L39.01-17.27ZM50.40-0.02L50.40 6.64L47.55 6.64L47.55-10.76L47.55-10.76Q47.55-13.65 47.46-14.56L47.46-14.56L47.46-14.56Q47.38-15.69 47.08-16.98L47.08-16.98L49.84-17.60L49.84-17.60Q50.12-16.67 50.25-15.72L50.25-15.72L50.25-15.72Q50.42-14.56 50.44-13.93L50.44-13.93L50.68-13.93L50.68-13.93Q51.55-15.72 52.59-16.57L52.59-16.57L52.59-16.57Q53.86-17.65 55.71-17.65L55.71-17.65L55.71-17.65Q57.34-17.65 58.52-16.94L58.52-16.94L58.52-16.94Q59.70-16.24 60.35-14.97L60.35-14.97L60.35-14.97Q61.01-13.71 61.32-12.20L61.32-12.20L61.32-12.20Q61.63-10.69 61.63-8.87L61.63-8.87L61.63-8.87Q61.63-6.81 61.20-5.16L61.20-5.16L61.20-5.16Q60.78-3.52 59.90-2.25L59.90-2.25L59.90-2.25Q59.02-0.98 57.54-0.29L57.54-0.29L57.54-0.29Q56.06 0.40 54.07 0.40L54.07 0.40L54.07 0.40Q52.51 0.40 50.40-0.02L50.40-0.02ZM50.40-10.26L50.40-10.26L50.40-2.54L50.40-2.54Q52.28-2.04 53.86-2.04L53.86-2.04L53.86-2.04Q55.20-2.04 56.17-2.53L56.17-2.53L56.17-2.53Q57.14-3.02 57.69-3.91L57.69-3.91L57.69-3.91Q58.24-4.80 58.49-5.89L58.49-5.89L58.49-5.89Q58.74-6.99 58.74-8.35L58.74-8.35L58.74-8.35Q58.74-9.28 58.69-9.99L58.69-9.99L58.69-9.99Q58.65-10.69 58.55-11.51L58.55-11.51L58.55-11.51Q58.44-12.33 58.21-12.92L58.21-12.92L58.21-12.92Q57.97-13.50 57.62-14.00L57.62-14.00L57.62-14.00Q57.28-14.49 56.72-14.75L56.72-14.75L56.72-14.75Q56.16-15.01 55.43-15.01L55.43-15.01L55.43-15.01Q53.67-15.01 52.38-13.60L52.38-13.60L52.38-13.60Q51.45-12.57 50.40-10.26ZM78.16-3.20L78.99-0.96L78.99-0.96Q77.15-0.23 75.53 0.08L75.53 0.08L75.53 0.08Q73.91 0.40 72.63 0.40L72.63 0.40L72.63 0.40Q70.67 0.40 69.21-0.22L69.21-0.22L69.21-0.22Q67.75-0.85 66.78-1.98L66.78-1.98L66.78-1.98Q65.81-3.10 65.32-4.67L65.32-4.67L65.32-4.67Q64.83-6.24 64.83-8.13L64.83-8.13L64.83-8.13Q64.83-9.30 65.00-10.46L65.00-10.46L65.00-10.46Q65.16-11.62 65.53-12.68L65.53-12.68L65.53-12.68Q65.89-13.73 66.48-14.64L66.48-14.64L66.48-14.64Q67.07-15.56 67.92-16.22L67.92-16.22L67.92-16.22Q68.76-16.88 69.89-17.27L69.89-17.27L69.89-17.27Q71.02-17.65 72.47-17.65L72.47-17.65L72.47-17.65Q76.17-17.65 78.04-15.33L78.04-15.33L78.04-15.33Q79.92-13.02 79.92-8.70L79.92-8.70L79.92-7.79L67.77-7.79L67.77-7.79Q67.77-6.39 68.07-5.32L68.07-5.32L68.07-5.32Q68.37-4.25 68.99-3.51L68.99-3.51L68.99-3.51Q69.61-2.77 70.56-2.39L70.56-2.39L70.56-2.39Q71.52-2.01 72.83-2.01L72.83-2.01L72.83-2.01Q73.56-2.01 74.28-2.12L74.28-2.12L74.28-2.12Q75.01-2.22 75.69-2.40L75.69-2.40L75.69-2.40Q76.37-2.57 76.99-2.79L76.99-2.79L76.99-2.79Q77.61-3.00 78.16-3.20L78.16-3.20ZM67.85-10.08L77.05-10.08L77.05-10.08Q76.92-12.77 75.76-14.00L75.76-14.00L75.76-14.00Q74.61-15.24 72.47-15.24L72.47-15.24L72.47-15.24Q70.32-15.24 69.20-14.00L69.20-14.00L69.20-14.00Q68.08-12.77 67.85-10.08L67.85-10.08ZM87.32-13.26L87.47-13.26L87.47-13.26Q87.99-14.29 88.58-15.12L88.58-15.12L88.58-15.12Q89.17-15.95 89.88-16.54L89.88-16.54L89.88-16.54Q90.53-17.10 91.31-17.37L91.31-17.37L91.31-17.37Q92.09-17.65 93.08-17.65L93.08-17.65L93.08-17.65Q93.42-17.65 93.86-17.61L93.86-17.61L93.86-17.61Q94.30-17.58 94.70-17.50L94.70-17.50L94.70-17.50Q94.63-16.67 94.54-15.94L94.54-15.94L94.54-15.94Q94.45-15.21 94.30-14.46L94.30-14.46L94.30-14.46Q93.47-14.61 92.78-14.68L92.78-14.68L92.78-14.68Q92.09-14.74 91.47-14.64L91.47-14.64L91.47-14.64Q90.74-14.51 90.20-14.15L90.20-14.15L90.20-14.15Q89.67-13.80 89.21-13.21L89.21-13.21L89.21-13.21Q88.75-12.62 88.32-11.80L88.32-11.80L88.32-11.80Q87.89-10.97 87.37-9.91L87.37-9.91L87.37 0L84.52 0L84.52-10.64L84.52-10.64Q84.52-11.69 84.49-12.48L84.49-12.48L84.49-12.48Q84.47-13.28 84.39-14.00L84.39-14.00L84.39-14.00Q84.32-14.73 84.17-15.43L84.17-15.43L84.17-15.43Q84.02-16.14 83.77-17L83.77-17L83.77-17Q84.47-17.18 85.14-17.33L85.14-17.33L85.14-17.33Q85.81-17.48 86.51-17.61L86.51-17.61L86.51-17.61Q86.74-16.95 86.88-16.44L86.88-16.44L86.88-16.44Q87.03-15.92 87.11-15.43L87.11-15.43L87.11-15.43Q87.19-14.94 87.23-14.44L87.23-14.44L87.23-14.44Q87.27-13.93 87.32-13.26L87.32-13.26ZM103.48 0L98.43 0L98.43-23.87L103.48-23.87L103.48-23.87Q105.52-23.87 107.27-23.67L107.27-23.67L107.27-23.67Q109.02-23.46 110.48-22.94L110.48-22.94L110.48-22.94Q111.94-22.43 113.05-21.57L113.05-21.57L113.05-21.57Q114.15-20.72 114.95-19.39L114.95-19.39L114.95-19.39Q115.73-18.06 116.13-16.24L116.13-16.24L116.13-16.24Q116.53-14.41 116.53-11.94L116.53-11.94L116.53-11.94Q116.53-9.46 116.13-7.64L116.13-7.64L116.13-7.64Q115.73-5.81 114.95-4.48L114.95-4.48L114.95-4.48Q114.15-3.15 113.05-2.30L113.05-2.30L113.05-2.30Q111.94-1.44 110.48-0.93L110.48-0.93L110.48-0.93Q109.02-0.42 107.27-0.21L107.27-0.21L107.27-0.21Q105.52 0 103.48 0L103.48 0ZM101.55-2.56L103.99-2.56L103.99-2.56Q106.53-2.56 108.30-3.06L108.30-3.06L108.30-3.06Q110.07-3.57 111.20-4.71L111.20-4.71L111.20-4.71Q112.31-5.86 112.82-7.63L112.82-7.63L112.82-7.63Q113.32-9.40 113.32-11.94L113.32-11.94L113.32-11.94Q113.32-14.48 112.82-16.24L112.82-16.24L112.82-16.24Q112.31-18.01 111.20-19.16L111.20-19.16L111.20-19.16Q110.07-20.30 108.30-20.81L108.30-20.81L108.30-20.81Q106.53-21.32 103.99-21.32L103.99-21.32L101.55-21.32L101.55-2.56ZM121.17-0.13L121.17-23.91L124.03-23.91L124.03-13.96L124.38-13.93L124.38-13.93Q125.16-15.66 126.22-16.55L126.22-16.55L126.22-16.55Q127.45-17.65 129.19-17.65L129.19-17.65L129.19-17.65Q132.23-17.65 133.84-15.09L133.84-15.09L133.84-15.09Q135.29-12.72 135.29-8.96L135.29-8.96L135.29-8.96Q135.29-4.40 133.11-1.93L133.11-1.93L133.11-1.93Q131.04 0.40 126.97 0.40L126.97 0.40L126.97 0.40Q124.74 0.40 121.17-0.13L121.17-0.13ZM123.86-10.19L123.86-10.19L123.86-2.36L123.86-2.36Q125.39-2.04 126.97-2.04L126.97-2.04L126.97-2.04Q129.66-2.04 131.00-3.62L131.00-3.62L131.00-3.62Q132.40-5.25 132.40-8.45L132.40-8.45L132.40-8.45Q132.40-11.36 131.77-12.93L131.77-12.93L131.77-12.93Q130.94-15.01 128.94-15.01L128.94-15.01L128.94-15.01Q127.20-15.01 125.87-13.55L125.87-13.55L125.87-13.55Q124.94-12.55 123.86-10.19ZM147.72-17.27L149.25-17.27L149.25-17.27Q149.96-17.27 150.50-17.28L150.50-17.28L150.50-17.28Q151.04-17.30 151.54-17.36L151.54-17.36L151.54-17.36Q152.04-17.42 152.54-17.53L152.54-17.53L152.54-17.53Q153.05-17.65 153.73-17.86L153.73-17.86L153.73-17.86Q153.95-17.23 154.15-16.67L154.15-16.67L154.15-16.67Q154.36-16.10 154.58-15.51L154.58-15.51L154.58-15.51Q154.05-15.31 153.60-15.19L153.60-15.19L153.60-15.19Q153.15-15.07 152.71-15.00L152.71-15.00L152.71-15.00Q152.27-14.92 151.83-14.90L151.83-14.90L151.83-14.90Q151.39-14.88 150.89-14.86L150.89-14.86L150.89-14.86Q151.36-14.11 151.61-13.18L151.61-13.18L151.61-13.18Q151.85-12.25 151.85-11.16L151.85-11.16L151.85-11.16Q151.85-9.56 151.37-8.38L151.37-8.38L151.37-8.38Q150.89-7.19 150.00-6.36L150.00-6.36L150.00-6.36Q149.10-5.53 147.85-5.10L147.85-5.10L147.85-5.10Q146.59-4.68 145.03-4.68L145.03-4.68L145.03-4.68Q144.23-4.68 143.52-4.77L143.52-4.77L143.52-4.77Q142.81-4.86 142.16-5.10L142.16-5.10L142.16-5.10Q142.01-4.70 141.90-4.28L141.90-4.28L141.90-4.28Q141.79-3.87 141.80-3.49L141.80-3.49L141.80-3.49Q141.81-3.12 141.94-2.81L141.94-2.81L141.94-2.81Q142.08-2.51 142.41-2.32L142.41-2.32L142.41-2.32Q142.57-2.22 142.76-2.17L142.76-2.17L142.76-2.17Q142.94-2.11 143.20-2.07L143.20-2.07L143.20-2.07Q143.45-2.03 143.82-2.00L143.82-2.00L143.82-2.00Q144.18-1.98 144.70-1.98L144.70-1.98L144.70-1.98Q145.20-1.96 145.87-1.96L145.87-1.96L145.87-1.96Q146.54-1.96 147.44-1.96L147.44-1.96L147.44-1.96Q150.03-1.96 151.36-0.87L151.36-0.87L151.36-0.87Q152.68 0.22 152.68 2.51L152.68 2.51L152.68 2.51Q152.68 3.44 152.39 4.16L152.39 4.16L152.39 4.16Q152.09 4.88 151.56 5.41L151.56 5.41L151.56 5.41Q151.04 5.94 150.33 6.30L150.33 6.30L150.33 6.30Q149.61 6.66 148.78 6.88L148.78 6.88L148.78 6.88Q147.95 7.11 147.05 7.20L147.05 7.20L147.05 7.20Q146.14 7.29 145.23 7.29L145.23 7.29L145.23 7.29Q144.32 7.29 143.40 7.19L143.40 7.19L143.40 7.19Q142.47 7.09 141.59 6.94L141.59 6.94L141.59 6.94Q140.71 6.79 139.94 6.60L139.94 6.60L139.94 6.60Q139.17 6.41 138.57 6.23L138.57 6.23L138.57 6.23Q138.81 5.66 139.10 5.10L139.10 5.10L139.10 5.10Q139.39 4.53 139.72 4.03L139.72 4.03L139.72 4.03Q140.76 4.33 142.21 4.62L142.21 4.62L142.21 4.62Q143.65 4.90 145.41 4.90L145.41 4.90L145.41 4.90Q146.21 4.90 146.98 4.80L146.98 4.80L146.98 4.80Q147.75 4.70 148.38 4.42L148.38 4.42L148.38 4.42Q149.00 4.15 149.38 3.69L149.38 3.69L149.38 3.69Q149.76 3.24 149.76 2.51L149.76 2.51L149.76 2.51Q149.76 1.74 149.49 1.33L149.49 1.33L149.49 1.33Q149.21 0.91 148.75 0.71L148.75 0.71L148.75 0.71Q148.29 0.51 147.65 0.48L147.65 0.48L147.65 0.48Q147.02 0.45 146.33 0.45L146.33 0.45L144.15 0.45L144.15 0.45Q143.17 0.45 142.31 0.30L142.31 0.30L142.31 0.30Q141.45 0.15 140.80-0.21L140.80-0.21L140.80-0.21Q140.15-0.56 139.78-1.15L139.78-1.15L139.78-1.15Q139.40-1.73 139.40-2.57L139.40-2.57L139.40-2.57Q139.40-3.39 139.70-4.26L139.70-4.26L139.70-4.26Q140.00-5.13 140.48-6.03L140.48-6.03L140.48-6.03Q139.39-6.82 138.80-8.13L138.80-8.13L138.80-8.13Q138.21-9.45 138.21-11.16L138.21-11.16L138.21-11.16Q138.21-12.72 138.70-13.92L138.70-13.92L138.70-13.92Q139.19-15.12 140.08-15.97L140.08-15.97L140.08-15.97Q140.98-16.82 142.23-17.23L142.23-17.23L142.23-17.23Q143.47-17.65 145.03-17.65L145.03-17.65L145.03-17.65Q146.49-17.65 147.72-17.27L147.72-17.27ZM145.03-15.36L145.03-15.36L145.03-15.36Q143.99-15.36 143.24-15.04L143.24-15.04L143.24-15.04Q142.49-14.73 142.02-14.17L142.02-14.17L142.02-14.17Q141.54-13.61 141.32-12.84L141.32-12.84L141.32-12.84Q141.10-12.07 141.10-11.16L141.10-11.16L141.10-11.16Q141.10-10.23 141.32-9.46L141.32-9.46L141.32-9.46Q141.54-8.70 142.03-8.14L142.03-8.14L142.03-8.14Q142.51-7.59 143.25-7.28L143.25-7.28L143.25-7.28Q143.99-6.97 145.03-6.97L145.03-6.97L145.03-6.97Q146.08-6.97 146.82-7.28L146.82-7.28L146.82-7.28Q147.57-7.59 148.04-8.14L148.04-8.14L148.04-8.14Q148.52-8.70 148.74-9.47L148.74-9.47L148.74-9.47Q148.97-10.24 148.97-11.16L148.97-11.16L148.97-11.16Q148.97-12.07 148.74-12.84L148.74-12.84L148.74-12.84Q148.52-13.61 148.04-14.17L148.04-14.17L148.04-14.17Q147.57-14.73 146.82-15.04L146.82-15.04L146.82-15.04Q146.08-15.36 145.03-15.36ZM167.86-23.87L175.33-23.87L175.33-23.87Q176.91-23.87 178.31-23.51L178.31-23.51L178.31-23.51Q179.71-23.14 180.79-22.35L180.79-22.35L180.79-22.35Q181.89-21.53 182.51-20.29L182.51-20.29L182.51-20.29Q183.13-19.04 183.13-17.35L183.13-17.35L183.13-17.35Q183.13-15.66 182.51-14.41L182.51-14.41L182.51-14.41Q181.89-13.17 180.79-12.35L180.79-12.35L180.79-12.35Q179.94-11.72 178.91-11.37L178.91-11.37L178.91-11.37Q177.87-11.02 176.69-10.89L176.69-10.89L176.67-10.86L176.67-10.86Q177.16-10.54 177.74-9.97L177.74-9.97L177.74-9.97Q178.32-9.40 178.95-8.62L178.95-8.62L178.95-8.62Q179.58-7.84 180.24-6.93L180.24-6.93L180.24-6.93Q180.91-6.03 181.59-5.03L181.59-5.03L185.04 0L181.39 0L177.64-5.81L177.64-5.81Q176.62-7.40 175.89-8.38L175.89-8.38L175.89-8.38Q175.15-9.36 174.48-9.93L174.48-9.93L174.48-9.93Q173.83-10.49 173.15-10.69L173.15-10.69L173.15-10.69Q172.47-10.89 171.58-10.89L171.58-10.89L170.95-10.89L170.95 0L167.86 0L167.86-23.87ZM170.95-13.31L175.33-13.31L175.33-13.31Q176.38-13.31 177.24-13.55L177.24-13.55L177.24-13.55Q178.10-13.78 178.72-14.27L178.72-14.27L178.72-14.27Q179.35-14.76 179.70-15.52L179.70-15.52L179.70-15.52Q180.04-16.29 180.04-17.35L180.04-17.35L180.04-17.35Q180.04-18.41 179.70-19.17L179.70-19.17L179.70-19.17Q179.35-19.94 178.72-20.43L178.72-20.43L178.72-20.43Q178.10-20.92 177.24-21.15L177.24-21.15L177.24-21.15Q176.38-21.38 175.33-21.38L175.33-21.38L170.95-21.38L170.95-13.31ZM200.83-3.20L201.66-0.96L201.66-0.96Q199.82-0.23 198.20 0.08L198.20 0.08L198.20 0.08Q196.58 0.40 195.30 0.40L195.30 0.40L195.30 0.40Q193.34 0.40 191.88-0.22L191.88-0.22L191.88-0.22Q190.42-0.85 189.45-1.98L189.45-1.98L189.45-1.98Q188.48-3.10 187.99-4.67L187.99-4.67L187.99-4.67Q187.50-6.24 187.50-8.13L187.50-8.13L187.50-8.13Q187.50-9.30 187.66-10.46L187.66-10.46L187.66-10.46Q187.83-11.62 188.20-12.68L188.20-12.68L188.20-12.68Q188.56-13.73 189.15-14.64L189.15-14.64L189.15-14.64Q189.74-15.56 190.59-16.22L190.59-16.22L190.59-16.22Q191.43-16.88 192.56-17.27L192.56-17.27L192.56-17.27Q193.69-17.65 195.13-17.65L195.13-17.65L195.13-17.65Q198.84-17.65 200.71-15.33L200.71-15.33L200.71-15.33Q202.59-13.02 202.59-8.70L202.59-8.70L202.59-7.79L190.44-7.79L190.44-7.79Q190.44-6.39 190.74-5.32L190.74-5.32L190.74-5.32Q191.03-4.25 191.66-3.51L191.66-3.51L191.66-3.51Q192.28-2.77 193.23-2.39L193.23-2.39L193.23-2.39Q194.19-2.01 195.50-2.01L195.50-2.01L195.50-2.01Q196.23-2.01 196.95-2.12L196.95-2.12L196.95-2.12Q197.67-2.22 198.36-2.40L198.36-2.40L198.36-2.40Q199.04-2.57 199.66-2.79L199.66-2.79L199.66-2.79Q200.28-3.00 200.83-3.20L200.83-3.20ZM190.52-10.08L199.72-10.08L199.72-10.08Q199.58-12.77 198.43-14.00L198.43-14.00L198.43-14.00Q197.28-15.24 195.13-15.24L195.13-15.24L195.13-15.24Q192.99-15.24 191.87-14.00L191.87-14.00L191.87-14.00Q190.75-12.77 190.52-10.08L190.52-10.08ZM212.17-17.65L212.17-17.65L212.17-17.65Q213.53-17.65 214.90-17.37L214.90-17.37L214.90-17.37Q216.27-17.08 217.45-16.58L217.45-16.58L217.45-16.58Q217.21-16.05 216.97-15.54L216.97-15.54L216.97-15.54Q216.72-15.02 216.42-14.53L216.42-14.53L216.42-14.53Q216.00-14.69 215.50-14.86L215.50-14.86L215.50-14.86Q214.99-15.02 214.43-15.14L214.43-15.14L214.43-15.14Q213.88-15.26 213.29-15.33L213.29-15.33L213.29-15.33Q212.70-15.41 212.13-15.41L212.13-15.41L212.13-15.41Q211.52-15.41 210.95-15.28L210.95-15.28L210.95-15.28Q210.38-15.16 209.94-14.88L209.94-14.88L209.94-14.88Q209.50-14.59 209.23-14.14L209.23-14.14L209.23-14.14Q208.96-13.68 208.96-13.00L208.96-13.00L208.96-13.00Q208.96-12.30 209.26-11.83L209.26-11.83L209.26-11.83Q209.56-11.36 210.08-11.04L210.08-11.04L210.08-11.04Q210.59-10.72 211.28-10.51L211.28-10.51L211.28-10.51Q211.97-10.29 212.75-10.11L212.75-10.11L212.75-10.11Q213.96-9.81 215.01-9.44L215.01-9.44L215.01-9.44Q216.05-9.06 216.82-8.47L216.82-8.47L216.82-8.47Q217.58-7.87 218.01-6.99L218.01-6.99L218.01-6.99Q218.44-6.11 218.44-4.81L218.44-4.81L218.44-4.81Q218.44-3.45 217.90-2.47L217.90-2.47L217.90-2.47Q217.36-1.49 216.44-0.85L216.44-0.85L216.44-0.85Q215.52-0.22 214.29 0.09L214.29 0.09L214.29 0.09Q213.06 0.40 211.67 0.40L211.67 0.40L211.67 0.40Q210.94 0.40 210.17 0.31L210.17 0.31L210.17 0.31Q209.40 0.22 208.64 0.04L208.64 0.04L208.64 0.04Q207.88-0.13 207.15-0.38L207.15-0.38L207.15-0.38Q206.42-0.63 205.78-0.93L205.78-0.93L205.78-0.93Q206.01-1.46 206.27-1.97L206.27-1.97L206.27-1.97Q206.52-2.47 206.81-2.97L206.81-2.97L206.81-2.97Q207.35-2.74 207.97-2.53L207.97-2.53L207.97-2.53Q208.58-2.32 209.23-2.17L209.23-2.17L209.23-2.17Q209.88-2.03 210.51-1.93L210.51-1.93L210.51-1.93Q211.14-1.84 211.72-1.84L211.72-1.84L211.72-1.84Q212.45-1.84 213.14-2.01L213.14-2.01L213.14-2.01Q213.83-2.17 214.37-2.53L214.37-2.53L214.37-2.53Q214.91-2.89 215.23-3.45L215.23-3.45L215.23-3.45Q215.55-4.02 215.55-4.81L215.55-4.81L215.55-4.81Q215.55-5.56 215.25-6.04L215.25-6.04L215.25-6.04Q214.94-6.52 214.43-6.85L214.43-6.85L214.43-6.85Q213.91-7.17 213.22-7.38L213.22-7.38L213.22-7.38Q212.53-7.59 211.77-7.77L211.77-7.77L211.77-7.77Q210.61-8.05 209.57-8.42L209.57-8.42L209.57-8.42Q208.53-8.78 207.76-9.37L207.76-9.37L207.76-9.37Q206.99-9.96 206.53-10.83L206.53-10.83L206.53-10.83Q206.08-11.70 206.08-13.00L206.08-13.00L206.08-13.00Q206.08-14.21 206.57-15.09L206.57-15.09L206.57-15.09Q207.07-15.97 207.91-16.54L207.91-16.54L207.91-16.54Q208.75-17.10 209.85-17.37L209.85-17.37L209.85-17.37Q210.96-17.65 212.17-17.65ZM234.98-3.20L235.81-0.96L235.81-0.96Q233.97-0.23 232.35 0.08L232.35 0.08L232.35 0.08Q230.73 0.40 229.45 0.40L229.45 0.40L229.45 0.40Q227.49 0.40 226.03-0.22L226.03-0.22L226.03-0.22Q224.57-0.85 223.60-1.98L223.60-1.98L223.60-1.98Q222.63-3.10 222.14-4.67L222.14-4.67L222.14-4.67Q221.65-6.24 221.65-8.13L221.65-8.13L221.65-8.13Q221.65-9.30 221.81-10.46L221.81-10.46L221.81-10.46Q221.98-11.62 222.34-12.68L222.34-12.68L222.34-12.68Q222.71-13.73 223.30-14.64L223.30-14.64L223.30-14.64Q223.89-15.56 224.74-16.22L224.74-16.22L224.74-16.22Q225.58-16.88 226.71-17.27L226.71-17.27L226.71-17.27Q227.84-17.65 229.28-17.65L229.28-17.65L229.28-17.65Q232.99-17.65 234.86-15.33L234.86-15.33L234.86-15.33Q236.74-13.02 236.74-8.70L236.74-8.70L236.74-7.79L224.59-7.79L224.59-7.79Q224.59-6.39 224.88-5.32L224.88-5.32L224.88-5.32Q225.18-4.25 225.81-3.51L225.81-3.51L225.81-3.51Q226.43-2.77 227.38-2.39L227.38-2.39L227.38-2.39Q228.34-2.01 229.65-2.01L229.65-2.01L229.65-2.01Q230.38-2.01 231.10-2.12L231.10-2.12L231.10-2.12Q231.82-2.22 232.50-2.40L232.50-2.40L232.50-2.40Q233.19-2.57 233.81-2.79L233.81-2.79L233.81-2.79Q234.43-3.00 234.98-3.20L234.98-3.20ZM224.67-10.08L233.87-10.08L233.87-10.08Q233.73-12.77 232.58-14.00L232.58-14.00L232.58-14.00Q231.43-15.24 229.28-15.24L229.28-15.24L229.28-15.24Q227.14-15.24 226.02-14.00L226.02-14.00L226.02-14.00Q224.90-12.77 224.67-10.08L224.67-10.08ZM242.20-14.21L242.20-14.21L241.47-16.54L241.47-16.54Q244.26-17.65 247.31-17.65L247.31-17.65L247.31-17.65Q249.99-17.65 251.40-16.75L251.40-16.75L251.40-16.75Q253.01-15.72 253.01-13.25L253.01-13.25L253.01-6.46L253.01-6.46Q253.01-5.10 253.04-3.67L253.04-3.67L253.04-3.67Q253.06-2.82 253.21-1.91L253.21-1.91L253.21-1.91Q253.34-1.05 253.56-0.27L253.56-0.27L250.83 0.33L250.83 0.33Q250.45-0.78 250.35-2.16L250.35-2.16L250.02-2.19L250.02-2.19Q247.96 0.40 244.77 0.40L244.77 0.40L244.77 0.40Q242.45 0.40 241.04-0.89L241.04-0.89L241.04-0.89Q239.63-2.17 239.63-4.52L239.63-4.52L239.63-4.52Q239.63-6.26 240.40-7.37L240.40-7.37L240.40-7.37Q241.17-8.48 242.58-9.25L242.58-9.25L242.58-9.25Q244.81-10.46 248.81-10.46L248.81-10.46L248.81-10.46Q249.34-10.46 250.24-10.43L250.24-10.43L250.24-12.95L250.24-12.95Q250.24-14.14 249.50-14.68L249.50-14.68L249.50-14.68Q248.77-15.21 247.21-15.21L247.21-15.21L247.21-15.21Q244.94-15.21 242.20-14.21ZM250.24-4.85L250.24-4.85L250.24-8.33L250.24-8.33Q249.79-8.37 248.92-8.37L248.92-8.37L248.92-8.37Q247.46-8.37 246.23-8.12L246.23-8.12L246.23-8.12Q244.41-7.75 243.40-6.96L243.40-6.96L243.40-6.96Q242.40-6.18 242.40-4.70L242.40-4.70L242.40-4.70Q242.40-2.04 245.29-2.04L245.29-2.04L245.29-2.04Q246.78-2.04 248.08-2.84L248.08-2.84L248.08-2.84Q249.14-3.50 250.24-4.85ZM261.42-13.26L261.57-13.26L261.57-13.26Q262.09-14.29 262.68-15.12L262.68-15.12L262.68-15.12Q263.27-15.95 263.98-16.54L263.98-16.54L263.98-16.54Q264.63-17.10 265.41-17.37L265.41-17.37L265.41-17.37Q266.19-17.65 267.19-17.65L267.19-17.65L267.19-17.65Q267.52-17.65 267.96-17.61L267.96-17.61L267.96-17.61Q268.40-17.58 268.80-17.50L268.80-17.50L268.80-17.50Q268.73-16.67 268.64-15.94L268.64-15.94L268.64-15.94Q268.55-15.21 268.40-14.46L268.40-14.46L268.40-14.46Q267.57-14.61 266.88-14.68L266.88-14.68L266.88-14.68Q266.19-14.74 265.58-14.64L265.58-14.64L265.58-14.64Q264.84-14.51 264.31-14.15L264.31-14.15L264.31-14.15Q263.77-13.80 263.31-13.21L263.31-13.21L263.31-13.21Q262.85-12.62 262.42-11.80L262.42-11.80L262.42-11.80Q261.99-10.97 261.47-9.91L261.47-9.91L261.47 0L258.62 0L258.62-10.64L258.62-10.64Q258.62-11.69 258.59-12.48L258.59-12.48L258.59-12.48Q258.57-13.28 258.49-14.00L258.49-14.00L258.49-14.00Q258.42-14.73 258.27-15.43L258.27-15.43L258.27-15.43Q258.12-16.14 257.87-17L257.87-17L257.87-17Q258.57-17.18 259.24-17.33L259.24-17.33L259.24-17.33Q259.91-17.48 260.61-17.61L260.61-17.61L260.61-17.61Q260.84-16.95 260.98-16.44L260.98-16.44L260.98-16.44Q261.13-15.92 261.21-15.43L261.21-15.43L261.21-15.43Q261.29-14.94 261.33-14.44L261.33-14.44L261.33-14.44Q261.38-13.93 261.42-13.26L261.42-13.26ZM283.65-2.94L284.37-0.61L284.37-0.61Q283.07-0.17 281.60 0.12L281.60 0.12L281.60 0.12Q280.13 0.40 278.82 0.40L278.82 0.40L278.82 0.40Q276.83 0.40 275.37-0.18L275.37-0.18L275.37-0.18Q273.91-0.76 272.95-1.88L272.95-1.88L272.95-1.88Q272-2.99 271.54-4.61L271.54-4.61L271.54-4.61Q271.07-6.23 271.07-8.30L271.07-8.30L271.07-8.30Q271.07-10.56 271.64-12.30L271.64-12.30L271.64-12.30Q272.22-14.04 273.30-15.23L273.30-15.23L273.30-15.23Q274.39-16.42 275.96-17.03L275.96-17.03L275.96-17.03Q277.53-17.65 279.52-17.65L279.52-17.65L279.52-17.65Q280.53-17.65 281.58-17.44L281.58-17.44L281.58-17.44Q282.63-17.23 283.70-16.92L283.70-16.92L282.99-14.59L282.99-14.59Q282.13-14.88 281.39-15.04L281.39-15.04L281.39-15.04Q280.65-15.21 279.84-15.21L279.84-15.21L279.84-15.21Q277.01-15.21 275.49-13.57L275.49-13.57L275.49-13.57Q273.96-11.94 273.96-8.63L273.96-8.63L273.96-8.63Q273.96-7.09 274.18-5.87L274.18-5.87L274.18-5.87Q274.41-4.65 274.98-3.79L274.98-3.79L274.98-3.79Q275.55-2.94 276.54-2.49L276.54-2.49L276.54-2.49Q277.53-2.04 279.06-2.04L279.06-2.04L279.06-2.04Q280.05-2.04 281.21-2.30L281.21-2.30L281.21-2.30Q282.36-2.56 283.65-2.94L283.65-2.94ZM288.57 0L288.57-23.91L291.42-23.91L291.42-13.50L291.42-13.50Q292.54-15.39 293.95-16.45L293.95-16.45L293.95-16.45Q295.56-17.65 297.15-17.65L297.15-17.65L297.15-17.65Q299.54-17.65 300.87-16.45L300.87-16.45L300.87-16.45Q302.02-15.42 302.45-13.35L302.45-13.35L302.45-13.35Q302.78-11.77 302.78-9.10L302.78-9.10L302.78 0L299.92 0L299.92-9.89L299.92-9.89Q299.92-10.91 299.87-11.56L299.87-11.56L299.87-11.56Q299.82-12.22 299.63-12.94L299.63-12.94L299.63-12.94Q299.44-13.66 299.09-14.07L299.09-14.07L299.09-14.07Q298.73-14.48 298.09-14.74L298.09-14.74L298.09-14.74Q297.45-15.01 296.54-15.01L296.54-15.01L296.54-15.01Q294.96-15.01 293.50-13.51L293.50-13.51L293.50-13.51Q292.57-12.57 291.42-10.63L291.42-10.63L291.42 0L288.57 0Z" fill="url(#editing-gradient-gradient)"></path></g></g><style>text {
  font-size: 64px;
  font-family: Arial Black;
  dominant-baseline: central;
  text-anchor: middle;
}</style></svg>